<?xml version="1.0" ?>
<!-- Uploaded to: SVG Repo, www.svgrepo.com, Generator: SVG Repo Mixer Tools -->
<svg width="800px" height="800px" viewBox="0 0 32 32" xmlns="http://www.w3.org/2000/svg">
<defs>
<style>.cls-1{fill:#5f7cf9;}.cls-2{fill:#4062ed;}.cls-3{fill:#8c9eff;}</style>
</defs>
<title/>
<g id="Unlock">
<path class="cls-1" d="M20,14H12a1,1,0,0,1-1-1V9A5,5,0,0,1,21,9a1,1,0,0,1-2,0,3,3,0,0,0-6,0v3h7a1,1,0,0,1,0,2Z"/>
<path class="cls-2" d="M19,9a1,1,0,0,0,2,0,5,5,0,0,0-5-5V6A3,3,0,0,1,19,9Z"/>
<path class="cls-3" d="M21,13a1,1,0,0,0-1-1H16v2h4A1,1,0,0,0,21,13Z"/>
<rect class="cls-3" height="16" rx="1" ry="1" width="18" x="7" y="12"/>
<path class="cls-1" d="M24,12H16V28h8a1,1,0,0,0,1-1V13A1,1,0,0,0,24,12Z"/>
<path class="cls-3" d="M18,21H14a1,1,0,0,1,0-2h4a1,1,0,0,1,0,2Z"/>
<path class="cls-1" d="M18,19H16v2h2a1,1,0,0,0,0-2Z"/>
</g>
</svg>